<svg width="211" height="221" viewBox="0 0 211 221" fill="none" xmlns="http://www.w3.org/2000/svg">
<g clip-path="url(#clip0_902_308)">
<path d="M121.87 8.16377C122.451 8.59317 121.365 7.75998 121.893 8.20554L122.213 8.46574C122.482 8.68556 122.741 8.91129 123 9.13702C123.515 9.59666 124.007 10.0763 124.497 10.5641C124.987 11.0519 125.43 11.5798 125.861 12.1083C126.067 12.2935 126.24 12.5126 126.372 12.7561L126.141 12.4457L126.384 12.777L126.732 13.2695C127.511 14.4075 128.211 15.5985 128.825 16.8337C129.089 17.3735 129.345 17.9594 129.597 18.5266C129.887 19.1967 129.348 17.8679 129.597 18.5266L129.746 18.9112C129.88 19.2696 130 19.6287 130.121 19.9879C130.549 21.2783 130.89 22.5962 131.14 23.9326C131.203 24.2759 131.264 24.6139 131.311 24.9527L131.383 25.4701C131.41 25.6756 131.402 26.1488 131.359 25.4283C131.368 26.1129 131.489 26.8024 131.513 27.4916C131.57 28.8688 131.526 30.2484 131.381 31.6193C131.363 31.8298 131.293 32.9375 131.336 32.0864C131.301 32.3973 131.245 32.7053 131.168 33.0084C131.041 33.7215 130.881 34.4256 130.691 35.1258C130.501 35.826 130.349 36.312 130.147 36.8946C130.035 37.22 129.918 37.5485 129.789 37.8694C129.758 37.8872 129.489 38.5565 129.701 38.0916C129.914 37.6266 129.554 38.4162 129.518 38.4986C128.943 39.7436 128.269 40.9408 127.504 42.0787C127.326 42.3377 127.143 42.5997 126.958 42.8564C126.921 42.8771 126.53 43.4641 126.815 43.0545C127.1 42.6449 126.694 43.2058 126.666 43.2422C126.224 43.7889 125.759 44.3206 125.283 44.8314C124.33 45.8498 123.304 46.7971 122.212 47.6655C122.16 47.695 121.607 48.1185 122.032 47.8091C122.456 47.4998 121.88 47.8949 121.828 47.9244C121.574 48.1094 121.338 48.2774 121.047 48.4697C120.434 48.8855 119.807 49.2752 119.162 49.647C118.609 49.9603 118.055 50.2736 117.475 50.5399C117.172 50.7114 116.843 50.8492 116.518 50.9923C116.368 51.0771 116.208 51.1471 116.037 51.2025C115.817 51.3267 115.232 51.7061 115.906 51.2764C115.337 51.5633 114.734 51.7794 114.112 51.9197C113.406 52.1469 112.691 52.345 111.969 52.5192C111.247 52.6935 110.655 52.8288 110.02 52.926C109.674 52.9842 109.325 53.0371 108.978 53.0819C108.807 53.1095 108.453 53.2138 109.122 53.0691C108.908 53.1084 108.691 53.1322 108.473 53.1402C107.074 53.2639 105.667 53.2791 104.265 53.1855C103.914 53.1632 103.551 53.1417 103.212 53.092L102.79 53.0413C102.061 52.9714 103.433 53.1532 102.718 53.0343C102.002 52.9154 101.329 52.7863 100.641 52.6176C99.9522 52.449 99.3821 52.2823 98.7638 52.0671C98.4739 51.9692 98.1864 51.8632 97.8959 51.7519C97.8752 51.7154 97.2244 51.4427 97.6737 51.664L97.2771 51.4749C96.0525 50.9047 94.8805 50.228 93.7743 49.4528C93.5077 49.2908 93.2555 49.106 93.0205 48.9007C93.5734 49.4632 93.1296 48.9838 92.994 48.8537L92.6743 48.5935C92.1211 48.1278 91.5903 47.6287 91.0857 47.1147C90.581 46.6008 90.1906 46.167 89.7782 45.6698L89.5198 45.3473C89.0615 44.7934 89.9259 45.9308 89.5198 45.3473L88.9451 44.5147C88.5749 43.9581 88.235 43.382 87.9268 42.7888L87.5336 41.9844L87.336 41.5379C87.0454 40.9028 87.572 42.2108 87.336 41.5379C87.0999 40.8651 86.9435 40.3815 86.789 39.7797C86.718 39.4959 86.6574 39.2062 86.5998 38.9218L86.5033 38.3492L86.4773 38.1571C86.434 37.837 86.4427 37.901 86.4981 38.3521C86.4981 38.3521 86.4358 36.7193 86.4377 36.601C86.448 36.2781 86.4688 35.9493 86.4977 35.6228C86.5054 35.5633 86.5678 34.8938 86.5194 35.4175C86.4711 35.9411 86.5781 35.0948 86.5978 35.0078C86.7218 34.4046 86.8851 33.8102 87.0869 33.2283L87.266 32.7409C87.4085 32.3226 86.9536 33.4072 87.2495 32.7848C87.4117 32.4379 87.5589 32.1133 87.7591 31.7726C88.0561 31.2253 88.5405 30.7168 88.8064 30.1389C88.6095 30.595 88.5334 30.4727 88.7054 30.265L89.1213 29.7815C89.3419 29.5256 89.5789 29.2743 89.8218 29.0334C90.3091 28.5468 90.8218 28.0864 91.3578 27.654C91.6386 27.4192 91.36 27.4873 91.2011 27.7426C91.3236 27.6187 91.4653 27.5152 91.6207 27.4362C91.9511 27.2079 92.2735 26.9978 92.5878 26.8061C93.1882 26.441 93.8069 26.1069 94.4415 25.8051C94.6869 25.6662 94.959 25.5742 95.2192 25.4614C95.8888 25.1582 94.5618 25.6887 95.2557 25.4407C95.4562 25.3686 95.6538 25.2912 95.8282 25.2338C97.1809 24.7876 98.5705 24.4623 99.9807 24.262C100.17 24.2307 100.467 24.1106 99.8414 24.2719C100.017 24.2419 100.195 24.2264 100.374 24.2256C100.689 24.1985 101.029 24.1649 101.327 24.1683C102.072 24.142 102.817 24.1573 103.56 24.2143C103.919 24.2405 104.274 24.2697 104.623 24.3018C104.737 24.3201 105.522 24.4407 104.802 24.3248L105.27 24.3973C106.038 24.535 106.82 24.6988 107.577 24.9042C108.335 25.1096 109.101 25.3789 109.851 25.6438C110.22 25.7725 110.59 25.9146 110.957 26.0515L111.396 26.2303C112.125 26.507 110.838 25.9743 111.566 26.2994C113.016 26.9492 114.429 27.6771 115.8 28.4798C117.185 29.2949 118.523 30.1848 119.824 31.1305C120.114 31.3385 120.407 31.5517 120.698 31.7731L121.179 32.1351C120.669 31.7343 121.025 32.0222 121.155 32.0933C121.839 32.6437 122.528 33.1911 123.202 33.7607C127.755 37.6145 131.904 41.9226 135.582 46.6182L136.276 47.5146C136.405 47.6825 136.476 47.9529 136.214 47.4049C136.296 47.5326 136.387 47.6536 136.488 47.7669C136.981 48.4318 137.47 49.0997 137.945 49.7817C138.789 50.9793 139.612 52.2021 140.398 53.4456C142.012 55.9788 143.474 58.5495 144.83 61.2008C145.514 62.5436 146.166 63.8908 146.793 65.2795C147.088 65.9305 147.377 66.5872 147.66 67.2495L148.055 68.1909L148.267 68.7118C148.578 69.4668 148.121 68.3191 148.348 68.9145C149.418 71.6585 150.386 74.44 151.213 77.2663C152.041 80.0927 152.781 83.1062 153.36 86.0663C153.65 87.5521 153.902 89.0408 154.116 90.5323C154.217 91.2059 154.308 91.8782 154.389 92.5492L154.406 92.6772L154.462 93.1284L154.598 94.4779C155.172 100.408 155.168 106.381 154.584 112.311C154.524 113.034 154.439 113.737 154.352 114.448L154.229 115.448L154.188 115.74L154.115 116.257C153.888 117.709 153.632 119.157 153.333 120.601C152.732 123.513 151.982 126.392 151.086 129.228C150.634 130.655 150.148 132.079 149.628 133.499C149.378 134.165 149.124 134.825 148.857 135.486L148.463 136.399C148.175 137.107 148.713 135.816 148.408 136.52L148.144 137.138C146.958 139.85 145.643 142.498 144.202 145.083C142.76 147.669 141.194 150.181 139.505 152.622C138.652 153.856 137.771 155.065 136.862 156.261C136.538 156.7 136.862 156.261 136.928 156.183C136.795 156.362 136.653 156.538 136.533 156.703C136.412 156.868 136.165 157.173 135.973 157.406C135.463 158.053 134.931 158.685 134.408 159.319C130.588 163.858 126.359 168.038 121.775 171.804C121.226 172.26 120.666 172.708 120.108 173.148L119.307 173.767C119.27 173.787 118.681 174.245 119.093 173.936C119.504 173.627 118.761 174.179 118.694 174.231C117.519 175.103 116.325 175.949 115.111 176.769C112.658 178.429 110.131 179.969 107.529 181.391C104.897 182.833 102.195 184.149 99.4496 185.317C99.1394 185.451 98.8315 185.577 98.5184 185.706L97.9973 185.918C97.4814 186.127 98.0339 185.897 98.1122 185.853C97.3665 186.192 96.5713 186.456 95.8036 186.732C94.435 187.238 93.0458 187.708 91.6545 188.137C88.8952 188.995 86.0983 189.715 83.2638 190.294C82.8817 190.39 82.5221 190.561 82.2057 190.795C81.8893 191.03 81.6223 191.325 81.4198 191.663C81.2173 192.001 81.0834 192.375 81.0257 192.765C80.968 193.155 80.9876 193.552 81.0835 193.934C81.2939 194.696 81.7903 195.348 82.4693 195.753C83.1482 196.158 83.9574 196.286 84.7284 196.11C97.0614 193.529 108.746 188.483 119.082 181.276C129.597 173.99 138.633 164.775 145.711 154.12C152.703 143.631 157.449 131.808 159.65 119.397C161.799 106.731 161.405 93.7641 158.49 81.2535C155.628 68.9039 150.412 57.2227 143.126 46.8494C139.43 41.5575 135.194 36.665 130.484 32.2512C125.639 27.7357 120.269 23.5238 114.138 20.9148C108.007 18.3057 100.997 17.2008 94.4917 19.4008C88.3444 21.5019 82.8672 25.9807 81.059 32.4219C77.5317 44.9989 89.2033 56.8238 100.932 58.7732C113.41 60.8506 126.717 54.9656 133.354 44.0951C139.717 33.6767 138.633 19.4223 131.49 9.65251C129.636 7.10883 127.411 4.85753 124.889 2.97364C123.627 2.0341 121.476 2.74149 120.789 4.06105C119.956 5.63527 120.52 7.15618 121.87 8.16377Z" fill="#130E54"/>
<path d="M93.0769 171.754C85.5858 178.352 78.0893 184.948 70.5873 191.542C68.9498 192.986 69.7344 196.126 71.9087 196.557L102.574 202.773L111.232 204.523C112.782 204.825 114.544 204.089 114.924 202.433C115.272 200.941 114.478 199.074 112.835 198.743C102.613 196.666 92.3898 194.595 82.1649 192.53L73.5116 190.776L74.8278 195.793C82.3223 189.194 89.8189 182.598 97.3174 176.005C97.8759 175.442 98.1885 174.68 98.1865 173.886C98.1846 173.093 97.8683 172.333 97.307 171.772C96.7367 171.225 95.9771 170.918 95.1862 170.916C94.3953 170.915 93.6342 171.218 93.0612 171.763L93.0769 171.754Z" fill="#130E54"/>
</g>
<defs>
<clipPath id="clip0_902_308">
<rect width="171" height="145" fill="white" transform="translate(126.477 0.379883) rotate(60.4887)"/>
</clipPath>
</defs>
</svg>
