<svg width="272" height="236" viewBox="0 0 272 236" fill="none" xmlns="http://www.w3.org/2000/svg">
<path d="M261.698 225.602L266.076 223.08L270.308 225.505L271.727 226.317V224.608L266.815 221.783V209.61L271.727 206.773V205.063L266.039 208.325L262.401 206.24L255.452 202.226V190.029L262.401 186.016L266.039 183.931L269.362 185.858L271.69 187.192V185.495L266.779 182.658V170.461L271.69 167.623V165.914L270.259 166.75L266.039 169.175L261.673 166.666L255.477 163.089V150.892L260.558 147.958L266.039 144.793L271.545 147.97L271.69 148.055V146.345L270.975 145.933L266.779 143.508V131.347L271.69 128.51V126.813H271.606L266.039 130.038L260.509 126.849L255.477 123.939V111.742L260.012 109.123L266.076 105.644L271.727 108.905V107.196L266.815 104.371V92.1736L271.727 89.3365V87.6269L270.914 88.0998L266.064 90.8884L261.188 88.0634L255.537 84.7898V72.5927L261.734 69.016L266.1 66.4942L270.32 68.919L271.751 69.7556V68.0582L266.84 65.2211V53.024L270.829 50.7204L271.751 50.1869V48.4774L269.423 49.8232L266.039 51.751L262.401 49.6656L255.452 45.6524V33.4553L260.485 30.5455L266.039 27.3567L271.593 30.5697H271.69V28.9087L266.779 26.0716V13.8745L271.69 11.0495V9.33995L269.423 10.6494L266.039 12.6014L262.462 10.5403L255.513 6.46648V0.404297H254.033V6.46648L247.461 10.2614L243.471 12.565L239.335 10.1402L232.908 6.46648V0.404297H231.429V6.46648L224.807 10.3341L220.89 12.6014L217.107 10.419L210.255 6.46648V0.404297H208.775V6.46648L201.984 10.3826L198.213 12.565L194.575 10.4796L187.686 6.46648V0.404297H186.219V6.46648L179.028 10.613L175.644 12.565L172.006 10.5039L165.082 6.46648V0.404297H163.614V6.46648L157.041 10.2614L153.039 12.565L148.916 10.1402L142.477 6.46648V0.404297H140.997V6.46648L134.352 10.2978L130.435 12.565L126.663 10.3826L119.872 6.46648V0.404297H118.393V6.46648L111.614 10.419L107.83 12.6014L104.192 10.516L97.2672 6.46648V0.404297H95.7877V6.46648L88.6085 10.6494L85.2251 12.6014L81.5869 10.5403L74.6624 6.46648V0.404297H73.2193V6.46648L66.6222 10.2978L62.6202 12.6014L58.4971 10.1765L52.0576 6.46648V0.404297H50.5781V6.46648L43.9325 10.3341L40.0154 12.6014L36.2439 10.419L29.4528 6.46648V0.404297H27.9733V6.46648L21.1821 10.3826L17.4349 12.6014L13.7968 10.516L6.84798 6.46648V0.404297H5.36848V6.46648L0.457031 9.33995V11.0495L6.10823 7.78803L12.1839 11.3162L16.6709 13.8987V26.0716L12.0141 28.7632L6.10823 32.1701L0.457031 28.9087V30.6182L5.36848 33.4553V45.6524L0.457031 48.4774V50.1869L6.10823 46.9255L12.8994 50.8416L16.6709 53.024V65.2211L10.6074 68.7251L6.12036 71.3197L0.457031 68.0582V69.7678L5.36848 72.5927V84.7898L0.457031 87.6269V89.3365L1.26954 88.9121L6.12036 86.1235L11.3714 89.1182L16.6466 92.1736V104.371L10.2436 108.008L6.08398 110.433L0.457031 107.196V108.905L0.929986 109.184L5.36848 111.742V123.939L0.517666 126.776V128.474L1.8759 127.71L6.10823 125.285L10.7771 127.977L16.6709 131.347V143.472L12.7902 145.715L6.10823 149.57L0.457031 146.345V148.055L5.36848 150.892V163.089L0.517666 165.914V167.623L6.16887 164.362L16.7315 170.424V182.621L12.0626 185.313L6.16887 188.72L0.457031 185.495V187.192L5.36848 190.029V202.226L0.457031 205.063V206.773L6.10823 203.512L16.6709 209.574V221.771L6.10823 227.833L0.457031 224.632V226.342L5.36848 229.179V235.241H6.84798V229.179L12.8387 225.723L17.4349 223.08L22.1038 225.772L27.9975 229.179V235.241H29.477V229.179L35.3708 225.772L40.0397 223.08L44.7692 225.808L50.6023 229.179V235.241H52.0818V229.179L57.6118 225.99L62.6445 223.08L67.6287 225.917L73.2193 229.179V235.241H74.6988V229.179L80.8957 225.602L85.2614 223.08L89.5059 225.505L95.8241 229.142V235.205H97.3036V229.142L103.294 225.687L107.866 223.044L112.535 225.736L118.429 229.142V235.205H119.908V229.142L125.814 225.736L130.471 223.044L135.213 225.772L141.034 229.142V235.205H142.513V229.142L148.043 225.954L153.076 223.044L158.109 225.917L163.675 229.13V235.192H165.142V229.13L171.339 225.554L175.705 223.032L179.949 225.457L186.28 229.094V235.156H187.747V229.094L193.738 225.639L198.322 222.995L202.979 225.687L208.884 229.094V235.156H210.255V229.094L216.149 225.687L220.818 222.995L225.547 225.723L231.38 229.094V235.156H232.86V229.094L238.377 225.905L243.422 222.995L248.419 225.881L253.985 229.094V235.156H255.464V229.094L261.698 225.602ZM265.336 170.461V182.658L260.764 185.301L254.773 188.756L248.94 185.386L244.211 182.658V170.461L254.773 164.398L265.336 170.461ZM46.2972 109.269L50.5781 111.694V123.891L45.8485 126.619L40.0154 129.989L34.1096 126.582L29.4528 123.891V111.742L33.6245 109.317L40.0154 105.68L46.2972 109.269ZM40.7552 104.419V92.1736L46.0426 89.1182L51.3178 86.075L56.9812 89.3365L61.832 92.1736V104.371L55.7685 107.85L51.233 110.469L47.0734 108.044L40.7552 104.419ZM40.7552 131.359L46.6611 127.953L51.3178 125.261L56.3627 128.171L61.8805 131.347V143.472L58.2424 145.557L51.2815 149.57L44.5995 145.715L40.7552 143.472V131.359ZM56.4112 126.51L52.0576 124V111.742L55.9868 109.524L62.6202 105.692L69.4235 109.524L73.2193 111.742V123.939L68.9991 126.364L62.6566 130.002L56.4112 126.51ZM63.36 104.431V92.1736L68.6474 89.1182L73.9227 86.075L79.21 89.1182L84.4853 92.1736V104.371L77.9367 108.141L73.9227 110.469L69.6418 108.044L63.36 104.431ZM63.36 131.372L69.1931 128.013L73.9227 125.273L78.4945 127.916L84.4853 131.347V143.472L80.8472 145.581L73.9348 149.57L67.4226 145.897L63.36 143.472V131.372ZM79.6951 126.91L74.6624 124V111.742L79.1979 109.123L85.2614 105.644L91.325 109.184L95.7635 111.742V123.939L90.7671 126.825L85.2008 130.038L79.6951 126.91ZM85.9648 104.431V92.1736L91.6888 88.9121L96.5396 86.1235L101.827 89.1667L107.102 92.2221V104.371L100.699 108.008L96.5396 110.433L92.7923 108.311L85.9648 104.431ZM85.9648 131.372L92.2951 127.734L96.5275 125.309L101.196 128.001L107.09 131.347V143.472L103.209 145.715L96.5275 149.57L90.1971 145.897L85.9891 143.472L85.9648 131.372ZM101.827 126.631L97.2672 124V111.742L101.293 109.414L107.83 105.644L114.221 109.281L118.393 111.706V123.903L113.748 126.595L107.83 130.002L101.827 126.631ZM108.57 104.431V92.1736L113.42 89.3728L119.132 86.075L123.983 88.9L129.634 92.1736V104.371L123.001 108.202L119.072 110.469L114.645 107.899L108.57 104.431ZM108.57 131.372L114.136 128.171L119.132 125.273L123.51 127.795L129.695 131.432V143.472L125.366 146.03L119.157 149.667L111.88 145.496L108.57 143.472V131.372ZM124.529 126.692L119.872 124V111.742L124.044 109.317L130.435 105.68L136.716 109.317L140.997 111.742V123.939L136.28 126.667L130.435 130.038L124.529 126.692ZM131.174 104.431V92.1736L136.462 89.1182L141.737 86.075L147.4 89.3365L152.251 92.1736V104.371L146.188 107.85L141.652 110.469L137.493 108.044L131.174 104.431ZM131.174 131.372L137.08 127.965L141.737 125.273L146.782 128.183L152.3 131.372V143.472L148.662 145.557L141.701 149.57L135.031 145.715L131.174 143.472V131.372ZM146.843 126.522L142.477 124.012V111.742L146.418 109.524L153.039 105.692L159.855 109.524L163.614 111.694V123.891L159.382 126.316L153.039 129.953L146.843 126.522ZM153.779 104.443V92.1736L159.067 89.1182L164.342 86.075L169.629 89.1182L174.917 92.1736V104.371L168.368 108.141L164.342 110.469L160.073 108.044L153.779 104.443ZM153.779 131.384L159.612 128.025L164.342 125.285L168.926 127.928L174.917 131.384V143.472L171.279 145.581L164.354 149.57L157.854 145.812L153.779 143.472V131.384ZM170.114 126.922L165.082 124.012V111.742L169.629 109.123L175.693 105.644L181.756 109.184L186.207 111.742V123.939L181.198 126.825L175.632 130.038L170.114 126.922ZM176.384 104.443V92.1736L182.108 88.9121L186.959 86.1235L192.234 89.1667L197.521 92.2221V104.371L191.118 108.008L186.959 110.433L183.212 108.311L176.384 104.443ZM176.384 131.384L182.714 127.746L186.959 125.322L191.616 128.013L197.521 131.347V143.472L193.629 145.715L186.959 149.57L180.592 145.933L176.384 143.508V131.384ZM192.258 126.643L187.686 124.012V111.742L191.725 109.414L198.261 105.644L204.652 109.281L208.824 111.706V123.903L204.191 126.631L198.285 130.038L192.258 126.643ZM198.989 104.443V92.1736L203.84 89.3728L209.564 86.075L214.414 88.9L220.078 92.1736V104.371L213.432 108.202L209.515 110.469L205.077 107.899L198.989 104.443ZM198.989 131.384L204.555 128.183L209.564 125.285L213.893 127.71L220.09 131.347V143.472L215.724 145.994L209.527 149.631L202.251 145.46L198.989 143.472V131.384ZM214.948 126.704L210.255 123.939V111.742L214.427 109.317L220.818 105.68L227.087 109.317L231.38 111.742V123.939L226.651 126.667L220.818 130.038L214.948 126.704ZM221.606 104.443V92.1736L226.881 89.1182L232.168 86.075L237.82 89.3365L242.731 92.1736V104.371L236.668 107.85L232.144 110.469L227.972 108.044L221.606 104.443ZM221.606 131.384L227.5 127.977L232.168 125.285L237.201 128.195L242.731 131.384V143.472L239.093 145.557L232.144 149.57L225.462 145.715L221.582 143.472L221.606 131.384ZM237.262 126.534L232.908 124.024V111.742L236.837 109.524L243.471 105.692L250.274 109.524L254.033 111.694V123.891L249.813 126.316L243.471 129.953L237.262 126.534ZM237.807 87.736L232.957 84.899V72.5927L238.487 69.404L243.519 66.4942L248.516 69.3798L254.082 72.5927V84.7898L249.231 87.5906L243.519 90.8884L237.807 87.736ZM242.731 65.3302L237.141 68.5553L232.168 71.4288L227.669 68.8342L221.606 65.3302V53.024L225.377 50.8416L232.168 46.9255L239.154 50.9629L242.731 53.024V65.3302ZM225.583 69.3434L231.429 72.7019V84.7898L226.141 87.8452L220.866 90.8884L215.579 87.8452L210.255 84.7898V72.5927L216.161 69.1858L220.818 66.4942L225.583 69.3434ZM220.126 65.3302L213.687 69.0403L209.564 71.4652L204.64 68.6281L198.989 65.3666V53.024L202.372 51.072L209.564 46.9255L215.991 50.6476L220.126 53.0725V65.3302ZM202.906 69.2949L208.824 72.7019V84.7898L203.536 87.8452L198.261 90.8884L192.974 87.8452L187.686 84.7898V72.5927L193.75 69.1373L198.322 66.4942L202.906 69.2949ZM197.521 65.3302L191.458 68.8342L186.971 71.4288L183.054 69.1615L176.396 65.3302V53.024L180.398 50.7204L186.971 46.9255L193.75 50.8416L197.534 53.024L197.521 65.3302ZM179.937 68.9312L186.28 72.5685V84.7898L180.556 88.0998L175.705 90.8884L170.854 88.0634L165.191 84.7898V72.5927L171.4 69.016L175.753 66.4942L179.937 68.9312ZM174.977 65.2211L168.744 68.8584L164.403 71.3682L159.806 68.7129L153.84 65.2696V53.024L157.757 50.7689L164.403 46.9255L171.376 50.9507L175.014 53.024L174.977 65.2211ZM158.109 69.3798L163.675 72.5927V84.7898L158.824 87.5906L153.1 90.8884L147.449 87.6269L142.598 84.7898V72.5927L148.128 69.404L153.161 66.4942L158.109 69.3798ZM152.36 65.2211L146.782 68.4462L141.798 71.3197L137.311 68.7251L131.247 65.2211V53.024L135.031 50.8416L141.81 46.9255L148.795 50.9629L152.372 53.024L152.36 65.2211ZM135.225 69.2343L141.058 72.5927V84.7898L135.783 87.8452L130.495 90.8884L125.22 87.8452L119.872 84.7898V72.5927L125.778 69.1858L130.435 66.4942L135.225 69.2343ZM129.756 65.2211L123.328 68.9312L119.193 71.356L114.342 68.5189L108.691 65.2575V53.024L112.074 51.072L119.254 46.9255L125.693 50.6476L129.816 53.0725L129.756 65.2211ZM112.487 69.1858L118.393 72.5927V84.7898L113.117 87.8452L107.83 90.8884L102.555 87.8452L97.2672 84.7898V72.5927L103.331 69.1373L107.89 66.4942L112.487 69.1858ZM107.09 65.2211L101.027 68.7251L96.5275 71.3197L92.6226 69.0524L85.9769 65.2211V53.024L89.9789 50.7204L96.5396 46.9255L103.331 50.8416L107.102 53.024L107.09 65.2211ZM89.4453 68.9312L95.7877 72.5685V84.7898L90.0759 88.0998L85.2251 90.8884L80.3742 88.0634L74.7109 84.7898V72.5927L80.92 69.016L85.2736 66.4942L89.4453 68.9312ZM84.4853 65.2211L78.2641 68.8584L73.9227 71.3682L69.3265 68.6644L63.36 65.2211V53.024L67.277 50.7689L73.9227 46.9255L80.8836 50.9507L84.5217 53.024L84.4853 65.2211ZM67.6166 69.3798L73.2193 72.5927V84.7898L68.3685 87.5906L62.6445 90.8884L56.969 87.6269L52.0576 84.7898V72.5927L57.5875 69.404L62.6202 66.4942L67.6166 69.3798ZM61.8805 65.2211L56.2414 68.4462L51.2693 71.3197L46.7823 68.7251L40.7188 65.2211V53.024L44.4903 50.8416L51.2815 46.9255L58.303 50.9629L61.8805 53.024V65.2211ZM44.745 69.2343L50.5781 72.5927V84.7898L45.3271 87.8452L40.0397 90.8884L34.7644 87.8452L29.4528 84.7898V72.5927L35.3587 69.1858L40.0154 66.4942L44.745 69.2343ZM39.2636 65.2211L32.8362 68.9312L28.7009 71.356L23.7895 68.5189L18.1383 65.2575V53.024L21.5217 51.072L28.7009 46.9255L35.1404 50.6476L39.2636 53.0725V65.2211ZM33.6245 88.9121L39.2636 92.1736V104.371L32.6179 108.202L28.713 110.469L24.2867 107.899L18.1504 104.371V92.1736L23.0012 89.3728L28.7252 86.075L33.6245 88.9121ZM33.0788 127.71L39.2636 131.347V143.472L34.91 145.994L28.7009 149.631L21.4247 145.46L18.1504 143.472V131.347L23.7167 128.147L28.713 125.249L33.0788 127.71ZM39.2636 170.461V182.658L34.2308 185.568L28.7009 188.756L22.3706 185.119L18.1383 182.694V170.461L28.7009 164.398L39.2636 170.461ZM35.3587 166.508L29.4528 163.101V150.892L34.2308 148.127L40.0154 144.793L45.7515 148.103L50.6023 150.892V163.089L44.745 166.508L40.0154 169.236L35.3587 166.508ZM40.7552 170.473L51.3178 164.41L61.8805 170.473V182.67L57.5148 185.192L51.3178 188.768L45.4241 185.361L40.7552 182.67V170.473ZM57.5875 166.29L52.0576 163.101V150.892L56.5931 148.321L62.6566 144.842L68.7444 148.321L73.2193 150.892V163.089L67.653 166.302L62.6566 169.175L57.5875 166.29ZM63.36 170.473L73.9227 164.41L84.4853 170.473V182.67L79.9134 185.313L73.9227 188.768L68.0895 185.398L63.36 182.67V170.473ZM80.8714 166.678L74.6624 163.101V150.892L79.7436 147.958L85.2251 144.793L90.7307 147.97L95.7877 150.892V163.089L89.4453 166.726L85.2251 169.151L80.8714 166.678ZM85.9648 170.473L96.5275 164.41L107.09 170.473V182.67L102.433 185.361L96.5275 188.768L90.9733 185.555L85.9648 182.67V170.473ZM103.27 166.508L97.2066 163.053V150.892L101.936 148.164L107.769 144.793L113.554 148.127L118.332 150.892V163.089L112.487 166.508L107.83 169.188L103.27 166.508ZM108.57 170.424L119.132 164.362L129.695 170.424V182.621L124.662 185.531L119.132 188.72L112.814 185.083L108.57 182.658V170.424ZM125.778 166.508L119.872 163.101V150.892L124.65 148.127L130.435 144.793L136.171 148.103L141.022 150.892V163.089L135.164 166.508L130.435 169.236L125.778 166.508ZM131.174 170.473L141.737 164.41L152.3 170.473V182.67L147.934 185.192L141.737 188.768L135.843 185.361L131.174 182.67V170.473ZM148.007 166.29L142.477 163.101V150.892L147.012 148.273L153.076 144.793L159.2 148.321L163.651 150.892V163.089L158.109 166.302L153.1 169.175L148.007 166.29ZM153.779 170.473L164.342 164.41L174.917 170.473V182.67L170.333 185.313L164.342 188.768L158.521 185.398L153.779 182.67V170.473ZM171.291 166.678L165.082 163.101V150.892L170.163 147.958L175.644 144.793L181.162 147.97L186.219 150.892V163.089L179.877 166.726L175.644 169.151L171.291 166.678ZM176.384 170.473L186.959 164.41L197.521 170.473V182.67L192.853 185.361L186.959 188.768L181.392 185.555L176.384 182.67V170.473ZM193.689 166.508L187.626 163.053V150.892L192.355 148.164L198.201 144.793L203.985 148.127L208.763 150.892V163.089L202.906 166.508L198.261 169.188L193.689 166.508ZM198.989 170.424L209.564 164.362L220.126 170.424V182.621L215.081 185.531L209.564 188.72L203.233 185.083L198.989 182.658V170.424ZM216.209 166.46L210.255 163.089V150.892L215.033 148.127L220.818 144.793L226.554 148.103L231.404 150.892V163.089L225.583 166.508L220.866 169.236L216.209 166.46ZM221.606 170.424L232.168 164.362L242.731 170.424V182.621L238.353 185.143L232.168 188.72L226.263 185.313L221.606 182.621V170.424ZM238.438 166.241L232.908 163.053V150.892L237.432 148.273L243.495 144.793L249.559 148.321L254.009 150.892V163.089L248.443 166.302L243.447 169.175L238.438 166.241ZM259.345 127.819L265.336 131.275V143.472L261.698 145.581L254.785 149.57L248.273 145.812L244.211 143.472V131.347L250.032 127.989L254.773 125.249L259.345 127.819ZM260.048 89.0819L265.336 92.1372V104.371L258.763 108.141L254.749 110.469L250.468 108.044L244.186 104.407V92.1736L249.462 89.1182L254.749 86.075L260.048 89.0819ZM261.734 50.9144L265.372 52.9876V65.2211L259.139 68.8584L254.81 71.3682L250.201 68.7129L244.211 65.2211V53.024L248.128 50.7689L254.773 46.9255L261.734 50.9144ZM244.211 13.8745L248.807 11.2192L254.773 7.78803L260.994 11.4253L265.336 13.923V26.0716L260.776 28.7147L254.773 32.1701L248.928 28.7995L244.211 26.0716V13.8745ZM249.801 31.0062L254.033 33.431V45.6524L247.667 49.2897L243.471 51.7146L239.105 49.1927L232.908 45.5554V33.4553L237.274 30.9334L243.471 27.3567L249.801 31.0062ZM221.606 13.8745L226.093 11.3162L232.156 7.81228L238.584 11.5223L242.719 13.9472V26.0716L238.353 28.5934L232.156 32.1701L226.238 28.7632L221.594 26.0716L221.606 13.8745ZM226.699 30.7152L231.429 33.4553V45.6524L224.916 49.3988L220.866 51.751L216.973 49.5079L210.255 45.6524V33.4553L214.96 30.7152L220.866 27.3082L226.699 30.7152ZM198.989 13.8745L202.906 11.6193L209.564 7.78803L215.106 11.0131L220.09 13.8745V26.0716L215.106 28.9814L209.576 32.1701L203.233 28.5328L199.001 26.1079L198.989 13.8745ZM204.191 30.7152L208.86 33.4068V45.6524L202.178 49.5079L198.298 51.751L194.659 49.6413L187.735 45.6524V33.4553L192.307 30.8122L198.37 27.3567L204.191 30.7152ZM176.42 13.826L181.344 10.9889L186.995 7.73953L193.059 11.2435L197.558 13.826V26.0716L192.901 28.7632L186.995 32.1701L181.429 28.9572L176.42 26.0716V13.826ZM181.271 30.5212L186.28 33.4068V45.6524L179.003 49.8232L175.669 51.751L172.03 49.6656L165.07 45.6524V33.4553L170.114 30.5455L175.632 27.3567L181.271 30.5212ZM153.779 13.8745L158.387 11.2192L164.342 7.78803L170.575 11.4253L174.917 13.923V26.0716L170.345 28.7147L164.281 32.1701L158.448 28.7995L153.719 26.0716L153.779 13.8745ZM159.321 31.0062L163.566 33.431V45.6524L157.199 49.2897L152.991 51.7146L148.637 49.1927L142.428 45.5554V33.4553L146.794 30.9334L152.991 27.3567L159.321 31.0062ZM131.174 13.8745L135.674 11.3162L141.737 7.81228L148.177 11.5223L152.3 13.9472V26.0716L147.946 28.5934L141.737 32.1701L135.831 28.7632L131.174 26.0716V13.8745ZM136.28 30.7152L141.009 33.4553V45.6524L134.509 49.3988L130.447 51.751L126.578 49.5079L119.896 45.6524V33.4553L124.541 30.7152L130.435 27.3082L136.28 30.7152ZM108.57 13.8745L112.487 11.6193L119.132 7.78803L124.723 11.0131L129.695 13.8745V26.0716L124.662 28.9814L119.132 32.1701L112.79 28.5328L108.57 26.1079V13.8745ZM113.736 30.7152L118.393 33.4068V45.6524L111.723 49.5079L107.83 51.751L104.192 49.6413L97.2793 45.6524V33.4553L101.851 30.8122L107.842 27.3567L113.736 30.7152ZM85.9648 13.8745L90.8884 11.0374L96.5275 7.78803L102.591 11.292L107.078 13.8745V26.0716L102.421 28.7632L96.5275 32.1701L90.9611 28.9572L85.9648 26.0716V13.8745ZM90.8156 30.5697L95.812 33.4553V45.6524L88.5357 49.8232L85.2251 51.751L81.5869 49.6656L74.626 45.6524V33.4553L79.6587 30.5455L85.1887 27.3567L90.8156 30.5697ZM63.36 13.8745L67.9683 11.2192L73.9227 7.78803L80.156 11.4253L84.4853 13.923V26.0716L79.9255 28.7147L73.862 32.1701L68.0289 28.7995L63.2994 26.0716L63.36 13.8745ZM68.9506 31.0062L73.1829 33.431V45.6524L66.8283 49.2897L62.6202 51.7146L58.2666 49.1927L52.0576 45.5554V33.4553L56.4233 30.9334L62.6202 27.3567L68.9506 31.0062ZM40.7552 13.8745L45.2422 11.3162L51.3057 7.81228L57.733 11.5223L61.8684 13.9472V26.0716L57.5148 28.5934L51.3178 32.1701L45.412 28.7632L40.7552 26.0716V13.8745ZM45.8485 30.7152L50.5781 33.4553V45.6524L44.1144 49.3988L40.0518 51.751L36.1712 49.5079L29.4892 45.6524V33.4553L34.1096 30.7152L40.0154 27.3082L45.8485 30.7152ZM18.1504 13.8745L22.0674 11.6193L28.713 7.78803L34.3036 11.0131L39.2636 13.8745V26.0716L34.2308 28.9814L28.713 32.1701L22.3706 28.5328L18.1504 26.1079V13.8745ZM13.7968 49.6413L6.88436 45.6524V33.4553L11.3714 30.8122L17.4349 27.3567L23.3165 30.7152L27.9733 33.4068V45.6524L21.2913 49.5079L17.4349 51.751L13.7968 49.6413ZM12.1232 87.8452L6.84798 84.7898V72.5927L12.9115 69.1373L17.4349 66.4942L22.0917 69.1858L27.9975 72.5927V84.7898L22.7223 87.8452L17.4349 90.8884L12.1232 87.8452ZM11.3714 126.57L6.8116 123.939V111.742L10.8378 109.414L17.4349 105.644L23.8258 109.281L27.9975 111.706V123.903L23.3408 126.595L17.4349 130.038L11.3714 126.57ZM12.8145 166.581L6.75097 163.125V150.892L11.4684 148.164L17.4349 144.793L23.2195 148.127L27.9975 150.892V163.089L22.0674 166.508L17.4349 169.175L12.8145 166.581ZM13.7968 206.215L6.88436 202.226V190.029L13.7968 186.04L17.4349 183.931L21.3155 186.174L27.9975 190.029V202.226L17.4349 208.289L13.7968 206.215ZM39.2636 221.807L28.7009 227.869L18.1383 221.807V209.61L28.7009 203.548L39.2636 209.61V221.807ZM36.1227 206.046L29.4407 202.19V190.029L36.1227 186.174L40.0033 183.931L44.1144 186.283L50.6145 190.029V202.226L40.0518 208.289L36.1227 206.046ZM61.8684 221.807L51.3057 227.869L40.7431 221.807V209.61L51.3057 203.548L61.8684 209.61V221.807ZM58.2303 205.815L52.0212 202.178V190.029L58.2303 186.392L62.5839 183.87L66.792 186.295L73.1465 189.932V202.129L62.5839 208.192L58.2303 205.815ZM84.4489 221.807L73.8863 227.869L63.3236 221.807V209.61L73.8863 203.548L84.4489 209.61V221.807ZM81.5869 206.24L74.626 202.226V190.029L81.5869 186.016L85.2251 183.931L88.56 185.907L95.8362 190.078V202.275L85.2736 208.337L81.5869 206.24ZM107.054 221.807L96.4911 227.869L85.9284 221.807V209.61L96.4911 203.548L107.054 209.61V221.807ZM104.143 206.215L97.2308 202.226V190.029L104.143 186.04L107.781 183.931L111.674 186.174L118.344 190.029V202.226L107.781 208.289L104.143 206.215ZM129.61 221.807L119.047 227.869L108.485 221.807V209.61L119.047 203.548L129.61 209.61V221.807ZM126.469 206.046L119.787 202.19V190.029L126.469 186.174L130.35 183.931L134.412 186.283L140.912 190.029V202.226L130.35 208.289L126.469 206.046ZM152.215 221.807L141.652 227.869L131.09 221.807V209.61L141.652 203.548L152.215 209.61V221.807ZM148.577 205.815L142.368 202.178V190.029L148.577 186.392L152.93 183.87L157.138 186.295L163.505 189.932V202.129L152.93 208.192L148.577 205.815ZM174.808 221.807L164.233 227.869L153.67 221.807V209.61L164.233 203.548L174.808 209.61V221.807ZM171.933 206.24L164.972 202.226V190.029L171.933 186.016L175.572 183.931L178.906 185.858L186.183 190.029V202.226L175.608 208.289L171.933 206.24ZM197.4 221.807L186.838 227.869L176.263 221.807V209.61L186.838 203.548L197.4 209.61V221.807ZM194.49 206.215L187.565 202.226V190.029L194.49 186.04L198.128 183.931L202.008 186.174L208.69 190.029V202.226L198.128 208.289L194.49 206.215ZM219.956 221.807L209.394 227.869L198.819 221.807V209.61L209.394 203.548L219.956 209.61V221.807ZM216.803 206.046L210.134 202.19V190.029L216.803 186.174L220.696 183.931L224.747 186.283L231.259 190.029V202.226L220.696 208.289L216.803 206.046ZM242.561 221.807L231.999 227.869L221.436 221.807V209.61L231.999 203.548L242.561 209.61V221.807ZM238.923 205.815L232.726 202.178V190.029L238.923 186.392L243.289 183.87L247.485 186.295L253.852 189.932V202.129L243.289 208.192L238.923 205.815ZM244.211 221.807V209.61L254.773 203.548L265.336 209.61V221.807L254.773 227.869L244.211 221.807Z" fill="url(#paint0_radial_902_759)"/>
<defs>
<radialGradient id="paint0_radial_902_759" cx="0" cy="0" r="1" gradientUnits="userSpaceOnUse" gradientTransform="translate(136.104 117.823) rotate(90) scale(117.418 135.647)">
<stop stop-color="white"/>
<stop offset="1" stop-color="white" stop-opacity="0"/>
</radialGradient>
</defs>
</svg>
